<svg xmlns="http://www.w3.org/2000/svg" viewBox="0 0 50 50"><path d="M36.05,41.05c-1.05-4.8-2.3-9.225-3.55-13.125a27.72984,27.72984,0,0,1,3.95-.275h.05a34.95754,34.95754,0,0,1,7.65.925A19.4706,19.4706,0,0,1,36.05,41.05ZM25,44.5a19.29535,19.29535,0,0,1-11.6-3.85,28.41106,28.41106,0,0,1,4.55-5.55,26.63863,26.63863,0,0,1,10.125-6.15,98.28631,98.28631,0,0,1,3.85,14.275A19.04968,19.04968,0,0,1,25,44.5ZM5.5,25v-.275c.55.025,1.275.025,2.125.025H7.65a61.87529,61.87529,0,0,0,17.7-2.525c.375.825.75,1.675,1.125,2.575a31.29373,31.29373,0,0,0-11,6.45A36.71,36.71,0,0,0,10.1,37.5,19.26094,19.26094,0,0,1,5.5,25ZM16.375,7.5A60.75385,60.75385,0,0,1,23.35,18.125,55.47924,55.47924,0,0,1,7.95,20.3H7.625c-.6,0-1.125,0-1.55-.025A19.50408,19.50408,0,0,1,16.375,7.5ZM25,5.5A19.31406,19.31406,0,0,1,37.15,9.775a25.53672,25.53672,0,0,1-9.575,6.85A74.147,74.147,0,0,0,20.85,5.95,20.68633,20.68633,0,0,1,25,5.5Zm15.325,7.45a19.55842,19.55842,0,0,1,4.15,11.125A38.30158,38.30158,0,0,0,36.5,23.2h-.025a33.75635,33.75635,0,0,0-5.65.475c-.425-1.05-.825-2.05-1.3-3.025A30.38033,30.38033,0,0,0,40.325,12.95ZM25,0A25,25,0,1,0,42.67767,7.32233,25,25,0,0,0,25,0Z" fill="#10141a"/></svg>