<svg xmlns="http://www.w3.org/2000/svg" viewBox="0 0 50 50"><path d="M25,1.38889a24.21475,24.21475,0,0,0-7.64635,47.18474c1.20985.19358,1.597-.55654,1.597-1.20986V43.27442c-6.70263,1.45184-8.1303-3.24244-8.1303-3.24244-1.11309-2.80688-2.68589-3.557-2.68589-3.557-2.202-1.50023.16937-1.45184.16937-1.45184A5.08778,5.08778,0,0,1,12.006,37.51546c2.10516,3.678,5.66215,2.58911,7.04142,2.00838A5.22545,5.22545,0,0,1,20.5719,36.2814c-5.37181-.60493-11.00977-2.6859-11.00977-11.90507a9.37136,9.37136,0,0,1,2.49231-6.55747,8.65417,8.65417,0,0,1,.242-6.38809s2.03256-.65333,6.65428,2.46813a23.31311,23.31311,0,0,1,12.09865,0c4.62167-3.12146,6.65427-2.46813,6.65427-2.46813a8.65417,8.65417,0,0,1,.242,6.38809,9.37118,9.37118,0,0,1,2.49231,6.55747c0,9.24337-5.66215,11.27594-11.05817,11.88087a5.77284,5.77284,0,0,1,1.66961,4.4765v6.63007c0,.65332.38715,1.42764,1.6212,1.20986A24.21719,24.21719,0,0,0,25,1.38889Z" fill="#10141a"/></svg>