<?xml version="1.0" encoding="UTF-8"?>
<svg xmlns="http://www.w3.org/2000/svg" viewBox="0 0 100 45.78506">
  <defs>
    <style>
      .a {
        fill: #212121;
      }
    </style>
  </defs>
  <title>logo</title><path
    class="a"
    d="M0,31.88175V3.11622A3.11622,3.11622,0,0,1,3.11622,0h0A3.11621,3.11621,0,0,1,6.23244,3.11622V20.08787h.096l8.38152-9.51054a2.91844,2.91844,0,0,1,2.18951-.98885h0a2.91844,2.91844,0,0,1,2.18183,4.85671l-4.84245,5.45094,7.01691,10.62652A2.88539,2.88539,0,0,1,18.84792,34.998h0a2.88538,2.88538,0,0,1-2.39772-1.28028L9.5405,23.39592H9.44472L6.23244,27.03948v4.84227A3.11621,3.11621,0,0,1,3.11623,34.998h0A3.11622,3.11622,0,0,1,0,31.88175Z"/><path
    class="a"
    d="M41.89485,28.18953h0a2.89852,2.89852,0,0,1,.08068,4.28417,11.86273,11.86273,0,0,1-8.45247,3.24343,11.22321,11.22321,0,0,1-8.67766-3.6676q-3.35636-3.66768-3.35595-9.75636,0-6.08788,3.332-9.75628a10.87821,10.87821,0,0,1,8.4139-3.66759,10.734,10.734,0,0,1,8.366,3.66759q3.2833,3.6677,3.284,9.75628h0a1.8698,1.8698,0,0,1-1.8698,1.8698H27.81786a6.82115,6.82115,0,0,0,1.606,4.48264,5.2223,5.2223,0,0,0,4.00327,1.55806,5.72045,5.72045,0,0,0,3.57164-1.0787,10.07933,10.07933,0,0,0,.9472-.82436A2.90119,2.90119,0,0,1,41.89485,28.18953Zm-14.077-8.677H38.84468a5.83655,5.83655,0,0,0-1.678-3.81144,5.47545,5.47545,0,0,0-3.93135-1.36633A5.05161,5.05161,0,0,0,29.47189,15.821,5.80577,5.80577,0,0,0,27.81786,19.51255Z"/><path
    class="a"
    d="M46.96048,31.88171V12.27323a2.68475,2.68475,0,0,1,2.68475-2.68475h.52743a2.68475,2.68475,0,0,1,2.68475,2.68475h.09588A5.57546,5.57546,0,0,1,55.08676,9.972,5.82289,5.82289,0,0,1,58.179,9.109l.02394,0a2.03149,2.03149,0,0,1,1.97908,2.35822l-.328,2.06621a2.0478,2.0478,0,0,1-2.11875,1.71586q-.09045-.00368-.1795-.00368-4.36314,0-4.36282,5.801v10.835A3.11626,3.11626,0,0,1,50.07675,34.998h0A3.11626,3.11626,0,0,1,46.96048,31.88171Z"/><path
    class="a"
    d="M61.91072,31.88171V12.27323a2.68475,2.68475,0,0,1,2.68476-2.68475h.52743a2.68475,2.68475,0,0,1,2.68475,2.68475h.09587A5.57559,5.57559,0,0,1,70.037,9.972,5.82294,5.82294,0,0,1,73.12928,9.109l.02395,0a2.03149,2.03149,0,0,1,1.97908,2.35822l-.328,2.06621a2.04779,2.04779,0,0,1-2.11875,1.71586q-.09045-.00368-.1795-.00368-4.36312,0-4.36282,5.801v10.835A3.11626,3.11626,0,0,1,65.027,34.998h0A3.11626,3.11626,0,0,1,61.91072,31.88171Z"/><path
    class="a"
    d="M82.25871,41.8487l3.41954-8.09724L77.198,13.59085a2.88411,2.88411,0,0,1,2.6585-4.00237h0a2.88411,2.88411,0,0,1,2.69457,1.85582L88.411,26.79985h.09587L94.35927,11.464A2.91467,2.91467,0,0,1,97.0824,9.58848h0A2.91468,2.91468,0,0,1,99.7849,13.5949l-12.288,30.41776a2.83387,2.83387,0,0,1-2.62757,1.7724h0A2.83387,2.83387,0,0,1,82.25871,41.8487Z"/></svg>
